# xmcd
#
# Track frame offsets: 
#        150
#        10898
#        20110
#        30879
#        39030
#        49412
#        58409
#        68108
#        77354
#        87756
#        96534
#        107980
#        117588
#        132653
#        146484
#        158230
#        168602
#        180132
#        191994
#        203661
#        216323
#        230911
#        240077
#        252668
#        266822
#        277054
#        289966
#        302822
#        315751
#        325243
#        336460
#
# Disc length: 4691 seconds
#
# Revision: 0
# Processed by: cddbd v1.5.2PL0 Copyright (c) Steve Scherf et al.
# Submitted via: ExactAudioCopy v1.3
#
DISCID=d512511f
DTITLE=The Jordanaires - Working On A Building (Two Great Gospel Album
DTITLE=s)
DYEAR=2018
DGENRE=Gospel
TTITLE0=Every Time I Feel The Spirit
TTITLE1=When They All Get Together
TTITLE2=You Better Run
TTITLE3=Dig A Little Deeper
TTITLE4=Search Me Lord
TTITLE5=Workin' On A Building
TTITLE6=When I Move
TTITLE7=Joshua Fit De Battle Of Jericho
TTITLE8=The Bible Tells Me So
TTITLE9=I'm So Glad He Lifted Me
TTITLE10=Shine On Me
TTITLE11=I Telephoned Upstairs
TTITLE12=How Great Thou Art
TTITLE13=I'd Rather Have Jesus
TTITLE14=To God Be The Glory
TTITLE15=Nearer, My God, To Thee
TTITLE16=Rock Of Ages
TTITLE17=Blessed Assurance
TTITLE18=Will The Circle Be Unbroken
TTITLE19=Amazing Grace
TTITLE20=Night, With Ebon Pinion
TTITLE21=Must Jesus Bear The Cross Alone
TTITLE22=Jesus Saviour Pilot Me
TTITLE23=Onward Christian Soldiers
TTITLE24=No Tears In Heaven
TTITLE25=Precious Memories
TTITLE26=An Empty Mansion
TTITLE27=Where Could I Go
TTITLE28=O Come Angel Band
TTITLE29=Hold To God's Unchanging Hand
TTITLE30=Wondrous Love
EXTD=
EXTT0=
EXTT1=
EXTT2=
EXTT3=
EXTT4=
EXTT5=
EXTT6=
EXTT7=
EXTT8=
EXTT9=
EXTT10=
EXTT11=
EXTT12=
EXTT13=
EXTT14=
EXTT15=
EXTT16=
EXTT17=
EXTT18=
EXTT19=
EXTT20=
EXTT21=
EXTT22=
EXTT23=
EXTT24=
EXTT25=
EXTT26=
EXTT27=
EXTT28=
EXTT29=
EXTT30=
PLAYORDER=
